<?xml version="1.0" standalone="no"?>
<!DOCTYPE svg PUBLIC "-//W3C//DTD SVG 20010904//EN"
 "http://www.w3.org/TR/2001/REC-SVG-20010904/DTD/svg10.dtd">
<svg version="1.0" xmlns="http://www.w3.org/2000/svg"
 width="112.000000pt" height="112.000000pt" viewBox="0 0 112.000000 112.000000"
 preserveAspectRatio="xMidYMid meet">

<g transform="translate(0.000000,112.000000) scale(0.100000,-0.100000)"
fill="#000000" stroke="none">
<path d="M260 1100 c0 -11 -5 -100 -11 -198 l-11 -177 -49 -52 c-54 -57 -69
-87 -69 -138 0 -27 8 -40 37 -64 33 -27 35 -31 15 -31 -12 0 -27 -9 -34 -19
-11 -18 -12 -18 -27 -1 -9 10 -37 21 -63 25 l-48 6 0 -52 0 -51 30 5 c16 4 32
2 35 -3 4 -6 10 -8 14 -6 12 8 35 -12 36 -32 1 -11 12 -33 26 -49 27 -34 165
-113 156 -91 -8 22 41 10 79 -19 34 -25 64 -29 81 -12 16 16 43 3 43 -21 0
-25 41 -28 69 -4 16 14 17 21 8 53 -14 46 -14 46 -33 30 -15 -12 -16 -11 -10
11 8 24 7 24 -7 5 -8 -11 -17 -32 -20 -45 -3 -14 -5 -4 -4 22 1 30 -5 54 -15
65 -9 10 -19 28 -22 40 -6 19 -4 22 10 16 13 -5 15 -3 9 7 -5 8 -4 11 3 6 6
-3 13 -2 17 4 10 17 45 12 45 -7 0 -12 3 -14 11 -6 6 6 11 38 12 72 2 51 0 59
-10 44 -7 -9 -13 -12 -13 -7 0 15 55 74 68 74 7 0 12 4 12 10 0 14 -39 32 -55
26 -16 -6 -37 16 -27 29 4 6 14 10 22 10 11 0 17 19 22 80 7 71 10 82 35 102
15 13 33 23 40 23 6 0 26 8 45 17 83 42 79 41 101 3 13 -22 16 -41 12 -77 -6
-40 -3 -52 15 -70 11 -13 25 -23 30 -23 6 0 10 -7 10 -15 0 -8 7 -15 15 -15
20 0 20 68 0 97 -9 12 -22 41 -30 63 -14 39 -13 40 5 30 29 -15 34 -13 89 36
33 30 51 54 51 69 0 42 -24 50 -146 50 l-114 0 -51 58 -51 57 -58 0 c-113 0
-210 -32 -259 -84 -26 -28 -43 -34 -36 -13 2 6 6 45 10 85 l6 72 -25 0 c-19 0
-26 -5 -26 -20z m157 -532 c-3 -8 -6 -5 -6 6 -1 11 2 17 5 13 3 -3 4 -12 1
-19z m47 -84 c-36 -29 -39 -29 -42 -1 -1 18 6 25 31 33 42 12 47 -2 11 -32z
m76 -6 c0 -36 -4 -44 -37 -72 l-22 -18 9 31 c7 24 6 31 -6 31 -36 0 9 55 49
59 4 1 7 -14 7 -31z"/>
<path d="M716 756 c-17 -14 -16 -15 16 -10 26 5 37 2 41 -9 4 -11 -2 -17 -24
-22 -35 -8 -39 -25 -6 -25 29 0 75 46 61 60 -18 18 -68 21 -88 6z"/>
<path d="M808 584 c37 -16 34 -34 -6 -34 -48 0 -58 -16 -19 -29 30 -10 35 -17
41 -51 3 -21 3 -45 0 -53 -8 -23 -36 -30 -46 -12 -12 21 -40 19 -82 -6 -33
-19 -36 -25 -36 -65 0 -24 0 -47 0 -51 0 -5 25 -9 55 -10 38 -1 55 3 55 11 0
7 8 23 19 35 18 20 20 20 56 5 21 -9 51 -14 67 -12 15 3 28 1 28 -3 0 -4 7
-10 16 -13 14 -5 15 0 9 41 -4 27 -10 52 -15 57 -5 5 -6 15 -3 22 3 8 0 14 -6
14 -6 0 -11 -5 -11 -11 0 -5 -17 6 -37 25 -46 43 -40 54 10 20 20 -13 37 -23
37 -20 0 2 -16 27 -35 56 -19 29 -35 58 -35 65 0 19 -13 25 -57 30 l-38 4 33
-15z m132 -230 c0 -19 -4 -25 -17 -22 -28 5 -25 48 3 48 8 0 14 -10 14 -26z"/>
<path d="M1025 421 c-3 -5 0 -21 7 -36 9 -20 9 -37 -1 -75 l-12 -49 50 -72 51
-72 0 156 0 157 -44 0 c-25 0 -47 -4 -51 -9z"/>
</g>
</svg>
